name C:/MyDriveSym/Projects/mobilecap/Data\Session20210825_0001\mocap\ForceDataProcessed\DJAsym1_forces.mot
datacolumns 28
datarows 13
range 1.95700000 1.96300000
endheader 
time	R_ground_force_vx	R_ground_force_vy	R_ground_force_vz	R_ground_force_px	R_ground_force_py	R_ground_force_pz	R_ground_torque_x	R_ground_torque_y	R_ground_torque_z	L_ground_force_vx	L_ground_force_vy	L_ground_force_vz	L_ground_force_px	L_ground_force_py	L_ground_force_pz	L_ground_torque_x	L_ground_torque_y	L_ground_torque_z	3_ground_force_vx	3_ground_force_vy	3_ground_force_vz	3_ground_force_px	3_ground_force_py	3_ground_force_pz	3_ground_torque_x	3_ground_torque_y	3_ground_torque_z	
          1.95700000	        -98.43042000	        591.65690700	        -79.67642000	         -0.15646500	          0.00600000	         -0.41226500	          0.00000000	         -0.18659200	          0.00000000	        -19.33266400	        373.22004500	         63.94673500	         -0.18341100	          0.00600000	         -0.76520000	          0.00000000	         -2.17424700	          0.00000000	          0.00000000	          0.00000000	          0.00000000	          0.00000000	          0.00000000	          0.00000000	          0.00000000	          0.00000000	          0.00000000	
          1.95750000	        -98.19251300	        590.23928500	        -79.48846400	         -0.15630200	          0.00600000	         -0.41220100	          0.00000000	         -0.12884800	          0.00000000	        -18.67432300	        369.43490200	         62.84232400	         -0.18312600	          0.00600000	         -0.76509400	          0.00000000	         -2.12891800	          0.00000000	          0.00000000	          0.00000000	          0.00000000	          0.00000000	          0.00000000	          0.00000000	          0.00000000	          0.00000000	          0.00000000	
          1.95800000	        -97.93730300	        588.77498300	        -79.29135900	         -0.15613900	          0.00600000	         -0.41213700	          0.00000000	         -0.07083900	          0.00000000	        -18.00814000	        365.58487200	         61.72900700	         -0.18283800	          0.00600000	         -0.76498300	          0.00000000	         -2.08200200	          0.00000000	          0.00000000	          0.00000000	          0.00000000	          0.00000000	          0.00000000	          0.00000000	          0.00000000	          0.00000000	          0.00000000	
          1.95850000	        -97.66479600	        587.26325600	        -79.08465900	         -0.15597500	          0.00600000	         -0.41207300	          0.00000000	         -0.01263000	          0.00000000	        -17.33453700	        361.66992900	         60.60693300	         -0.18254800	          0.00600000	         -0.76486900	          0.00000000	         -2.03354600	          0.00000000	          0.00000000	          0.00000000	          0.00000000	          0.00000000	          0.00000000	          0.00000000	          0.00000000	          0.00000000	          0.00000000	
          1.95900000	        -97.37500400	        585.70337300	        -78.86791200	         -0.15581000	          0.00600000	         -0.41201000	          0.00000000	          0.04571100	          0.00000000	        -16.65394800	        357.69009900	         59.47628500	         -0.18225500	          0.00600000	         -0.76474900	          0.00000000	         -1.98360100	          0.00000000	          0.00000000	          0.00000000	          0.00000000	          0.00000000	          0.00000000	          0.00000000	          0.00000000	          0.00000000	          0.00000000	
          1.95950000	        -97.06794800	        584.09462500	        -78.64066300	         -0.15564400	          0.00600000	         -0.41194700	          0.00000000	          0.10411400	          0.00000000	        -15.96681100	        353.64544900	         58.33727300	         -0.18195900	          0.00600000	         -0.76462600	          0.00000000	         -1.93221900	          0.00000000	          0.00000000	          0.00000000	          0.00000000	          0.00000000	          0.00000000	          0.00000000	          0.00000000	          0.00000000	          0.00000000	
          1.96000000	        -96.74365400	        582.43634100	        -78.40244700	         -0.15547800	          0.00600000	         -0.41188400	          0.00000000	          0.16250800	          0.00000000	        -15.27357900	        349.53608800	         57.19013700	         -0.18166000	          0.00600000	         -0.76449700	          0.00000000	         -1.87945500	          0.00000000	          0.00000000	          0.00000000	          0.00000000	          0.00000000	          0.00000000	          0.00000000	          0.00000000	          0.00000000	          0.00000000	
          1.96050000	        -96.40216300	        580.72791300	        -78.15277500	         -0.15531000	          0.00600000	         -0.41182200	          0.00000000	          0.22081900	          0.00000000	        -14.57471800	        345.36217400	         56.03513900	         -0.18135700	          0.00600000	         -0.76436300	          0.00000000	         -1.82536500	          0.00000000	          0.00000000	          0.00000000	          0.00000000	          0.00000000	          0.00000000	          0.00000000	          0.00000000	          0.00000000	          0.00000000	
          1.96100000	        -96.04354000	        578.96880100	        -77.89113000	         -0.15514000	          0.00600000	         -0.41176000	          0.00000000	          0.27897400	          0.00000000	        -13.87071200	        341.12391700	         54.87256000	         -0.18105100	          0.00600000	         -0.76422300	          0.00000000	         -1.77001000	          0.00000000	          0.00000000	          0.00000000	          0.00000000	          0.00000000	          0.00000000	          0.00000000	          0.00000000	          0.00000000	          0.00000000	
          1.96150000	        -95.66787300	        577.15851400	        -77.61697000	         -0.15497000	          0.00600000	         -0.41169900	          0.00000000	          0.33689600	          0.00000000	        -13.16204400	        336.82158500	         53.70269300	         -0.18074000	          0.00600000	         -0.76407800	          0.00000000	         -1.71345500	          0.00000000	          0.00000000	          0.00000000	          0.00000000	          0.00000000	          0.00000000	          0.00000000	          0.00000000	          0.00000000	          0.00000000	
          1.96200000	        -95.27527200	        575.29657600	        -77.32973100	         -0.15479800	          0.00600000	         -0.41163800	          0.00000000	          0.39450700	          0.00000000	        -12.44919600	        332.45551100	         52.52584200	         -0.18042600	          0.00600000	         -0.76392700	          0.00000000	         -1.65576900	          0.00000000	          0.00000000	          0.00000000	          0.00000000	          0.00000000	          0.00000000	          0.00000000	          0.00000000	          0.00000000	          0.00000000	
          1.96250000	        -94.86585800	        573.38248400	        -77.02883300	         -0.15462400	          0.00600000	         -0.41157700	          0.00000000	          0.45172400	          0.00000000	        -11.73263900	        328.02611300	         51.34232700	         -0.18010800	          0.00600000	         -0.76376900	          0.00000000	         -1.59701500	          0.00000000	          0.00000000	          0.00000000	          0.00000000	          0.00000000	          0.00000000	          0.00000000	          0.00000000	          0.00000000	          0.00000000	
          1.96300000	        -94.43976400	        571.41569000	        -76.71369400	         -0.15444900	          0.00600000	         -0.41151600	          0.00000000	          0.50846100	          0.00000000	        -11.01283200	        323.53390100	         50.15248000	         -0.17978500	          0.00600000	         -0.76360400	          0.00000000	         -1.53725900	          0.00000000	          0.00000000	          0.00000000	          0.00000000	          0.00000000	          0.00000000	          0.00000000	          0.00000000	          0.00000000	          0.00000000	
